<?xml version="1.0" encoding="UTF-8"?>
<svg width="174" height="60.9" id="VarDarkChrismas" xmlns="http://www.w3.org/2000/svg" xmlns:xlink="http://www.w3.org/1999/xlink" viewBox="0 0 174 60.9">
  <defs>
    <linearGradient id="Degradado_sin_nombre_132" data-name="Degradado sin nombre 132" x1="13.04" y1="56.11" x2="57.18" y2="11.97" gradientUnits="userSpaceOnUse">
      <stop offset=".23" stop-color="#32cd32"/>
      <stop offset=".5" stop-color="#0b3d56"/>
      <stop offset=".77" stop-color="orange"/>
    </linearGradient>
    <linearGradient id="Degradado_sin_nombre_132-2" data-name="Degradado sin nombre 132" x1="24.59" y1="64.49" x2="57.06" y2="32.03" xlink:href="#Degradado_sin_nombre_132"/>
    <linearGradient id="Degradado_sin_nombre_132-3" data-name="Degradado sin nombre 132" x1="12.84" y1="35.87" x2="45.4" y2="3.31" xlink:href="#Degradado_sin_nombre_132"/>
  </defs>
  <g style="filter: url(#drop-shadow-9);">
    <path d="M48.78,46.27c-.07,0-.15,0-.22.01l-.55-1.09.04-.68c.92-.66,1.83-1.32,2.73-1.97-.01-5.36-.02-10.72-.03-16.08-.94-.76-1.84-1.45-2.67-2.07l-.06-.83.4-.85c.1.01.21.02.31.02,1.35,0,2.45-1.09,2.45-2.45s-1.09-2.44-2.45-2.44-2.45,1.09-2.45,2.44c0,.64.24,1.21.64,1.65l-.73.99-.06.06c-.68-.48-1.3-.89-1.84-1.25-1.85-1.22-3.21-2.01-5.84-3.8-1.01-.69-1.89-1.31-2.63-1.83v-.64c.77-.41,1.29-1.22,1.29-2.15,0-1.35-1.09-2.45-2.45-2.45s-2.44,1.09-2.44,2.45c0,.93.52,1.74,1.29,2.15v.64c-1.57,1.1-2.87,1.98-3.8,2.6-2.92,1.95-4.24,2.73-6.49,4.3l-.76-1.18c.36-.43.58-.98.58-1.58,0-1.35-1.09-2.45-2.45-2.45s-2.44,1.09-2.44,2.45,1.09,2.44,2.44,2.44c.09,0,.18,0,.27-.02l.47.88-.04.81c-1.15.84-2.07,1.54-2.72,2.04v16.25c.72.53,1.65,1.2,2.77,1.98l.03.91-.47.78c-.11-.01-.21-.02-.33-.02-1.35,0-2.44,1.09-2.44,2.44s1.09,2.45,2.44,2.45,2.45-1.09,2.45-2.45c0-.68-.28-1.3-.73-1.74l.77-1.17c1.21.82,2.16,1.45,2.97,1.97,1.6,1.04,4.13,2.68,7.54,4.86v.92c-.79.4-1.33,1.23-1.33,2.18,0,1.35,1.09,2.44,2.45,2.44s2.44-1.09,2.44-2.44c0-.95-.54-1.77-1.33-2.18v-.9c2.88-1.78,5.82-3.69,8.81-5.74.56-.38,1.11-.76,1.66-1.15h0s.82,1.18.82,1.18c-.46.44-.74,1.06-.74,1.75,0,1.35,1.09,2.44,2.45,2.44s2.45-1.09,2.45-2.44-1.09-2.45-2.45-2.45ZM35.81,18.92c4.19,2.85,8.38,5.69,12.56,8.54-.02.9-.03,1.8-.05,2.7-.83-.02-1.66-.04-2.49-.05v-1.37c-3.34-2.17-6.69-4.35-10.03-6.52v-3.28ZM33.57,25.04h.01c.34-.23.68-.46,1.02-.69.34.23.68.46,1.02.69h.02l2.08,1.42s.07.05.11.07h0l5.53,3.78v2.85h-2.54v-1.67l-6.11-4.03-6.17,4.09v1.61h-2.71v-2.88l5.31-3.61,2.41-1.64ZM38.38,34.37c0,2.08-1.69,3.77-3.77,3.77s-3.77-1.69-3.77-3.77,1.69-3.77,3.77-3.77,3.77,1.69,3.77,3.77ZM21,27.46c4.17-2.82,8.33-5.65,12.49-8.47v3.18c-3.31,2.27-6.62,4.54-9.92,6.81v7.75c-.86-.01-1.71-.03-2.57-.05v-9.22ZM33.57,49.82l-12.56-8.36v-2.71h2.42v1.38l10.14,6.69v3ZM34.72,44.63l-8.88-5.88v-3.4h2.65v2.07l6.11,4.03,6.11-3.98v-2.13h2.65v3.4l-8.64,5.88ZM35.79,49.86v-3.06c3.35-2.24,6.7-4.48,10.05-6.72-.02-2.63-.04-5.26-.06-7.9h2.59v9.22c-4.2,2.82-8.39,5.64-12.59,8.45Z" style="fill: url(#Degradado_sin_nombre_132); stroke-width: 0px;"/>
    <circle cx="54.81" cy="34.28" r="2.45" style="fill: url(#Degradado_sin_nombre_132-2); stroke-width: 0px;"/>
    <circle cx="14.57" cy="34.14" r="2.45" style="fill: url(#Degradado_sin_nombre_132-3); stroke-width: 0px;"/>
  </g>
  <g>
    <path d="M31.1,25.56c3,.42,6.72.43,11.05,2.17,4.33,1.74,7.56,3.08,9.79-1.16,1.41-2.67-.27-5.25-3.9-7.31-1.46-.83-3.24-1.58-5.26-2.21-.91-.29-1.86-.55-2.86-.79-10.36-2.47-14.06-2.16-15.58,2.85-1.52,5.01,3.74,6.02,6.75,6.44Z" style="fill: #fff; stroke-width: 0px;"/>
    <path d="M31.1,25.56c3,.42,6.72.43,11.05,2.17,4.33,1.74,7.56,3.08,9.79-1.16,1.41-2.67-.27-5.25-3.9-7.31-.15,1.35,1.5,3.65,2.48,4.65,1.16,1.18,1.62,1.93-.39,3.82-2.01,1.89-4.84-.93-8.9-2.93-4.05-2-7.08-.93-9.26-2.13-2.18-1.2-1.3-4.58.87-5.9,2.16-1.32,9.76.93,9.76.93,0,0,.07-.25.18-.64-.91-.29-1.86-.55-2.86-.79-10.36-2.47-14.06-2.16-15.58,2.85-1.52,5.01,3.74,6.02,6.75,6.44Z" style="fill: #7b5757; opacity: .27; stroke-width: 0px;"/>
    <path d="M28.47,14.96c7.94.76,13.38,2.29,17,3.79.81.33,1.52.66,2.15.98,3.1,1.56,4.21,2.87,4.21,2.87,0,0-.11-13.31-1.47-14.45-1.36-1.13-4.44-3.23-7.82-4.59-3.38-1.36-2.5-1.83-5.86.85-3.36,2.67-8.22,10.55-8.22,10.55Z" style="fill: #c60701; stroke-width: 0px;"/>
    <path d="M36.69,4.41c3.36-2.67,2.48-2.21,5.86-.85,3.38,1.36,6.45,3.46,7.82,4.59,1.36,1.13,1.47,14.45,1.47,14.45,0,0-1.12-1.3-4.21-2.87-.63-.32-1.35-.65-2.15-.98-3.62-1.5-9.07-3.03-17-3.79,0,0,4.86-7.88,8.22-10.55ZM33.84,14.09c1.63.21,9.82,2.33,11.81,3.18-.04-2.37-2.47-2.1-4.09-3.94-1.85-2.1-1.12-4.95-2.74-4.93-1.62.03-6.63,5.47-4.98,5.69Z" style="fill: #6e0100; opacity: .24; stroke-width: 0px;"/>
    <path d="M39.68,2.44s-.48,3.72,1.51,7.74c1.99,4.02,4.85,5.21,4.85,5.21.91,1.44,6.87,10.74,8.1,10.9,1.23.16,2.78,1.17,2.04-5.22-.11-.93-.25-1.82-.42-2.65,0-.02,0-.02,0-.02-.99-4.9-2.97-8.23-5.39-10.23-2.11-1.73-5.06-3.27-7.33-4.3h0c-1.92-.88-3.35-1.41-3.35-1.41Z" style="fill: #c60701; stroke-width: 0px;"/>
    <path d="M39.68,2.44s-.48,3.72,1.51,7.74c1.99,4.02,4.85,5.21,4.85,5.21.91,1.44,6.87,10.74,8.1,10.9,1.23.16,2.78,1.17,2.04-5.22-.11-.93-.25-1.82-.42-2.65.04.31.41,3.51-.28,4.11-.73.64-1.36-.02-2.11.88-.75.91-5.66-7.24-6.62-9.07-.92-1.74-1.69-3.55-1.93-6.09.08.83-.56,2.98.04,4.43.75,1.82-1.82-1.31-2.63-4.66-.81-3.36-.15-4.24.8-4.16-1.92-.88-3.35-1.41-3.35-1.41Z" style="fill: #6e0100; opacity: .47; stroke-width: 0px;"/>
    <path d="M56.8,31.79c2.03-.5,3.02-1.67,3.23-2.97.31-1.87-.97-3.99-3-4.67h0c-.69-.23-1.46-.29-2.29-.12-4.94,1.02-3.91,9.21,2.07,7.76Z" style="fill: #fff; stroke-width: 0px;"/>
    <path d="M53.64,13.25c-1.36-2.43-3.56-4.84-4.82-5.09s.16,1.94,2.11,4.13c1.95,2.19,1.44,5.86,2.73,6.52,1.29.66,1.05-3.68,0-5.57Z" style="fill: #ff5; opacity: .14; stroke-width: 0px;"/>
    <path d="M56.8,31.79c2.03-.5,3.02-1.67,3.23-2.97-1.34,2.71-5.4,1.69-5.65-1.1-.24-2.75,2.56-3.55,2.64-3.57-.69-.23-1.46-.29-2.29-.12-4.94,1.02-3.91,9.21,2.07,7.76Z" style="fill: #7b5757; opacity: .27; stroke-width: 0px;"/>
  </g>
  <text transform="translate(60.68 34.39) scale(1.09 1)" style="fill: #0b3d56; font-family: Gugi-Regular, Gugi; font-size: 18.94px; stroke: #0b3d56; stroke-miterlimit: 10; stroke-width: .5px;"><tspan x="0" y="0">CodeTech</tspan></text>
  <text transform="translate(64.86 44.52) scale(.64 1)" style="fill: orange; font-family: FlorensaDemo-Regular, &apos;Florensa Demo&apos;; font-size: 10.8px; stroke: orange; stroke-miterlimit: 10; stroke-width: .25px;"><tspan x="0" y="0">TRANS</tspan><tspan x="33.41" y="0" style="letter-spacing: -.01em;">F</tspan><tspan x="39" y="0">ORMANDO EL MUNDO</tspan></text>
</svg>