<?xml version="1.0" encoding="UTF-8"?>
<svg width="174" height="60.9" id="VarDarkChrismas" xmlns="http://www.w3.org/2000/svg" xmlns:xlink="http://www.w3.org/1999/xlink" viewBox="0 0 174 60.9">
  <defs>
    <linearGradient id="Degradado_sin_nombre_129" data-name="Degradado sin nombre 129" x1="56.25" y1="56.05" x2="12.58" y2="12.38" gradientUnits="userSpaceOnUse">
      <stop offset=".23" stop-color="#32cd32"/>
      <stop offset=".5" stop-color="#007dc1"/>
      <stop offset=".77" stop-color="orange"/>
    </linearGradient>
    <linearGradient id="Degradado_sin_nombre_25" data-name="Degradado sin nombre 25" x1="84.64" y1="64.3" x2="52.57" y2="32.24" gradientUnits="userSpaceOnUse">
      <stop offset=".23" stop-color="orange"/>
      <stop offset=".5" stop-color="#007dc1"/>
      <stop offset=".77" stop-color="#32cd32"/>
    </linearGradient>
    <linearGradient id="Degradado_sin_nombre_25-2" data-name="Degradado sin nombre 25" x1="16.76" y1="36.03" x2="-15.41" y2="3.86" xlink:href="#Degradado_sin_nombre_25"/>
  </defs>
  <g style="filter: url(#drop-shadow-10);">
    <path d="M48.84,46.3c-.07,0-.14,0-.22.01l-.54-1.07.04-.67c.91-.65,1.81-1.3,2.7-1.95-.01-5.29-.02-10.59-.03-15.88-.93-.75-1.82-1.44-2.64-2.05l-.06-.82.39-.84c.1.01.2.02.31.02,1.33,0,2.42-1.08,2.42-2.42s-1.08-2.41-2.42-2.41-2.42,1.08-2.42,2.41c0,.63.24,1.2.63,1.63l-.72.98-.06.05c-.67-.47-1.28-.88-1.82-1.24-1.83-1.21-3.17-1.99-5.77-3.76-1-.68-1.87-1.29-2.6-1.81v-.64c.76-.41,1.27-1.21,1.27-2.13,0-1.33-1.08-2.42-2.42-2.42s-2.41,1.08-2.41,2.42c0,.92.51,1.72,1.27,2.13v.64c-1.55,1.08-2.84,1.95-3.76,2.57-2.88,1.92-4.19,2.7-6.42,4.25l-.75-1.16c.36-.42.57-.96.57-1.56,0-1.33-1.08-2.42-2.42-2.42s-2.41,1.08-2.41,2.42,1.08,2.41,2.41,2.41c.09,0,.18,0,.27-.02l.47.87-.04.8c-1.13.83-2.05,1.53-2.68,2.02v16.05c.71.52,1.63,1.19,2.74,1.96l.03.9-.46.77c-.11-.01-.21-.02-.32-.02-1.33,0-2.41,1.08-2.41,2.41s1.08,2.42,2.41,2.42,2.42-1.08,2.42-2.42c0-.67-.28-1.28-.72-1.72l.76-1.16c1.19.81,2.14,1.43,2.93,1.95,1.58,1.03,4.08,2.65,7.45,4.8v.91c-.78.4-1.32,1.21-1.32,2.15,0,1.33,1.08,2.41,2.42,2.41s2.41-1.08,2.41-2.41c0-.94-.54-1.75-1.32-2.15v-.89c2.84-1.76,5.75-3.65,8.7-5.67.55-.38,1.1-.76,1.64-1.13h0s.81,1.17.81,1.17c-.45.44-.73,1.05-.73,1.73,0,1.33,1.08,2.41,2.42,2.41s2.42-1.08,2.42-2.41-1.08-2.42-2.42-2.42ZM36.03,19.28c4.14,2.81,8.27,5.63,12.41,8.44-.02.89-.03,1.78-.05,2.66-.82-.02-1.64-.04-2.46-.05v-1.36c-3.3-2.15-6.6-4.3-9.91-6.45v-3.25ZM33.81,25.33h.01c.34-.23.67-.46,1.01-.68.34.23.67.46,1.01.68h.02l2.05,1.4s.07.05.11.07h0l5.47,3.73v2.82h-2.51v-1.65l-6.03-3.99-6.09,4.04v1.59h-2.68v-2.85l5.25-3.56,2.38-1.62ZM38.57,34.55c0,2.06-1.67,3.73-3.73,3.73s-3.73-1.67-3.73-3.73,1.67-3.73,3.73-3.73,3.73,1.67,3.73,3.73ZM21.4,27.72c4.11-2.79,8.23-5.58,12.34-8.37v3.14c-3.27,2.24-6.54,4.49-9.8,6.73v7.65c-.85-.01-1.69-.03-2.54-.05v-9.11ZM33.81,49.81l-12.41-8.26v-2.68h2.39v1.37l10.02,6.6v2.96ZM34.95,44.68l-8.77-5.81v-3.36h2.62v2.05l6.03,3.99,6.03-3.93v-2.11h2.62v3.36l-8.54,5.81ZM36.01,49.85v-3.03c3.31-2.21,6.62-4.42,9.93-6.64-.02-2.6-.04-5.2-.06-7.8h2.56v9.11c-4.15,2.78-8.29,5.57-12.44,8.35Z" style="fill: url(#Degradado_sin_nombre_129); stroke-width: 0px;"/>
    <circle cx="54.8" cy="34.46" r="2.42" style="fill: url(#Degradado_sin_nombre_25); stroke-width: 0px;"/>
    <circle cx="15.05" cy="34.32" r="2.42" style="fill: url(#Degradado_sin_nombre_25-2); stroke-width: 0px;"/>
  </g>
  <g>
    <path d="M31.39,25.33c2.97.42,6.64.43,10.92,2.15,4.28,1.72,7.46,3.04,9.68-1.15,1.4-2.64-.27-5.19-3.85-7.22-1.44-.82-3.2-1.56-5.19-2.19-.9-.28-1.84-.55-2.83-.78-10.24-2.44-13.89-2.13-15.39,2.81-1.5,4.95,3.7,5.95,6.67,6.37Z" style="fill: #fff; stroke-width: 0px;"/>
    <path d="M31.39,25.33c2.97.42,6.64.43,10.92,2.15,4.28,1.72,7.46,3.04,9.68-1.15,1.4-2.64-.27-5.19-3.85-7.22-.15,1.33,1.48,3.61,2.45,4.59,1.14,1.17,1.6,1.91-.39,3.77-1.99,1.87-4.79-.92-8.79-2.89-4-1.97-6.99-.92-9.15-2.11-2.15-1.19-1.28-4.52.86-5.83,2.14-1.3,9.64.92,9.64.92,0,0,.07-.25.18-.64-.9-.28-1.84-.55-2.83-.78-10.24-2.44-13.89-2.13-15.39,2.81-1.5,4.95,3.7,5.95,6.67,6.37Z" style="fill: #7b5757; opacity: .27; stroke-width: 0px;"/>
    <path d="M28.79,14.85c7.84.75,13.22,2.26,16.8,3.74.8.33,1.5.65,2.13.97,3.06,1.54,4.16,2.83,4.16,2.83,0,0-.11-13.15-1.46-14.27-1.35-1.12-4.39-3.19-7.72-4.54-3.34-1.35-2.47-1.8-5.79.84-3.32,2.64-8.12,10.42-8.12,10.42Z" style="fill: #c60701; stroke-width: 0px;"/>
    <path d="M36.91,4.43c3.32-2.64,2.45-2.18,5.79-.84,3.34,1.35,6.37,3.42,7.72,4.54,1.35,1.12,1.46,14.27,1.46,14.27,0,0-1.1-1.29-4.16-2.83-.62-.32-1.33-.64-2.13-.97-3.58-1.48-8.96-2.99-16.8-3.74,0,0,4.8-7.78,8.12-10.42ZM34.1,13.99c1.61.21,9.7,2.3,11.67,3.15-.04-2.34-2.44-2.08-4.04-3.9-1.82-2.07-1.11-4.89-2.71-4.87-1.6.03-6.55,5.4-4.92,5.62Z" style="fill: #6e0100; opacity: .24; stroke-width: 0px;"/>
    <path d="M39.86,2.48s-.47,3.68,1.5,7.65c1.97,3.97,4.79,5.14,4.79,5.14.9,1.42,6.79,10.61,8.01,10.76,1.22.16,2.75,1.16,2.01-5.16-.11-.92-.25-1.79-.42-2.62,0-.02,0-.02,0-.02-.98-4.84-2.93-8.14-5.33-10.11-2.08-1.71-5-3.23-7.24-4.25h0c-1.9-.87-3.31-1.39-3.31-1.39Z" style="fill: #c60701; stroke-width: 0px;"/>
    <path d="M39.86,2.48s-.47,3.68,1.5,7.65c1.97,3.97,4.79,5.14,4.79,5.14.9,1.42,6.79,10.61,8.01,10.76,1.22.16,2.75,1.16,2.01-5.16-.11-.92-.25-1.79-.42-2.62.04.31.41,3.47-.28,4.06-.72.63-1.35-.02-2.08.87-.74.89-5.59-7.16-6.54-8.96-.91-1.72-1.67-3.51-1.91-6.01.08.82-.55,2.94.04,4.37.74,1.8-1.8-1.29-2.6-4.61-.8-3.31-.15-4.19.79-4.11-1.9-.87-3.31-1.39-3.31-1.39Z" style="fill: #6e0100; opacity: .47; stroke-width: 0px;"/>
    <path d="M56.78,31.47c2.01-.49,2.98-1.65,3.19-2.93.31-1.85-.96-3.94-2.97-4.61h0c-.68-.23-1.45-.29-2.26-.12-4.88,1.01-3.87,9.1,2.04,7.66Z" style="fill: #fff; stroke-width: 0px;"/>
    <path d="M53.65,13.16c-1.34-2.4-3.51-4.79-4.76-5.03s.16,1.91,2.08,4.08c1.92,2.17,1.42,5.79,2.69,6.44,1.27.65,1.04-3.63,0-5.5Z" style="fill: #ff5; opacity: .14; stroke-width: 0px;"/>
    <path d="M56.78,31.47c2.01-.49,2.98-1.65,3.19-2.93-1.32,2.68-5.34,1.67-5.58-1.08-.24-2.72,2.53-3.51,2.61-3.53-.68-.23-1.45-.29-2.26-.12-4.88,1.01-3.87,9.1,2.04,7.66Z" style="fill: #7b5757; opacity: .27; stroke-width: 0px;"/>
  </g>
  <text transform="translate(65.18 44.72) scale(.64 1)" style="fill: orange; font-family: FlorensaDemo-Regular, &apos;Florensa Demo&apos;; font-size: 10.67px; stroke: orange; stroke-miterlimit: 10; stroke-width: .25px;"><tspan x="0" y="0">TRANS</tspan><tspan x="33" y="0" style="letter-spacing: -.01em;">F</tspan><tspan x="38.53" y="0" style="letter-spacing: 0em;">ORMANDO EL MUNDO</tspan></text>
  <text transform="translate(62.42 34.69) scale(1.09 1)" style="fill: #fff; font-family: Gugi-Regular, Gugi; font-size: 18.71px; stroke: #fff; stroke-miterlimit: 10; stroke-width: .5px;"><tspan x="0" y="0">CodeTech</tspan></text>
</svg>