<?xml version="1.0" encoding="UTF-8"?>
<svg xmlns="http://www.w3.org/2000/svg" xmlns:xlink="http://www.w3.org/1999/xlink">
    <symbol id="plyr-adblock" viewBox="0 0 512 512">
        <path d="M367.2 412.5L99.5 144.8C77.1 176.1 64 214.5 64 256c0 106 86 192 192 192c41.5 0 79.9-13.1 111.2-35.5zm45.3-45.3C434.9 335.9 448 297.5 448 256c0-106-86-192-192-192c-41.5 0-79.9 13.1-111.2 35.5L412.5 367.2zM0 256a256 256 0 1 1 512 0A256 256 0 1 1 0 256z"/>
    </symbol>
    <symbol id="plyr-airplay" viewBox="0 0 350 270">
        <path d="m346.11,55v121.29c0,30.38-24.62,55-55,55h-7.88c-1.23-2.45-2.88-4.79-4.97-6.96l-30.66-31.78h42.35c9.94,0,18-8.06,18-18V56.61c0-9.94-8.06-18-18-18H55.81c-9.95,0-18,8.06-18,18v117.94c0,9.94,8.05,18,18,18h33.63l-30.66,31.78c-2.09,2.16-3.73,4.5-4.97,6.94-29.83-.63-53.81-25-53.81-54.98V55C0,24.62,24.62,0,55,0h236.11c30.38,0,55,24.62,55,55Z"/>
        <path d="m187.25,158.65l76.11,75.44c12.69,12.57,3.78,34.2-14.08,34.2H97.05c-17.86,0-26.76-21.63-14.08-34.2l76.11-75.44c7.8-7.73,20.36-7.73,28.16,0Z"/>
    </symbol>
    <symbol id="plyr-captions-off" viewBox="0 0 24 24" fill="none"  stroke="currentColor"  stroke-width="2"  stroke-linecap="round"  stroke-linejoin="round">
        <path stroke="none" d="M0 0h24v24H0z" fill="none"/>
        <path d="M3 5m0 2a2 2 0 0 1 2 -2h14a2 2 0 0 1 2 2v10a2 2 0 0 1 -2 2h-14a2 2 0 0 1 -2 -2z" />
        <path d="M10 10.5a1.5 1.5 0 0 0 -3 0v3a1.5 1.5 0 0 0 3 0" />
        <path d="M17 10.5a1.5 1.5 0 0 0 -3 0v3a1.5 1.5 0 0 0 3 0" />
    </symbol>
    <symbol id="plyr-captions-on" viewBox="0 0 24 24" fill="currentColor">
        <path stroke="none" d="M0 0h24v24H0z" fill="none"/>
        <path d="M19 4a3 3 0 0 1 3 3v10a3 3 0 0 1 -3 3h-14a3 3 0 0 1 -3 -3v-10a3 3 0 0 1 3 -3zm-10.5 4a2.5 2.5 0 0 0 -2.5 2.5v3a2.5 2.5 0 1 0 5 0a1 1 0 0 0 -2 0a.5 .5 0 1 1 -1 0v-3a.5 .5 0 1 1 1 0a1 1 0 0 0 2 0a2.5 2.5 0 0 0 -2.5 -2.5m7 0a2.5 2.5 0 0 0 -2.5 2.5v3a2.5 2.5 0 1 0 5 0a1 1 0 0 0 -2 0a.5 .5 0 1 1 -1 0v-3a.5 .5 0 1 1 1 0a1 1 0 0 0 2 0a2.5 2.5 0 0 0 -2.5 -2.5" />
    </symbol>
    <symbol id="plyr-download" viewBox="0 0 24 24" fill="none"  stroke="currentColor"  stroke-width="2"  stroke-linecap="round"  stroke-linejoin="round">
        <path stroke="none" d="M0 0h24v24H0z" fill="none"/>
        <path d="M4 17v2a2 2 0 0 0 2 2h12a2 2 0 0 0 2 -2v-2" />
        <path d="M7 11l5 5l5 -5" />
        <path d="M12 4l0 12" />
    </symbol>
    <symbol id="plyr-enter-fullscreen" viewBox="0 0 24 24" fill="none"  stroke="currentColor"  stroke-width="2"  stroke-linecap="round"  stroke-linejoin="round">
        <path stroke="none" d="M0 0h24v24H0z" fill="none"/>
        <path d="M16 4l4 0l0 4" />
        <path d="M14 10l6 -6" />
        <path d="M8 20l-4 0l0 -4" />
        <path d="M4 20l6 -6" />
        <path d="M16 20l4 0l0 -4" />
        <path d="M14 14l6 6" />
        <path d="M8 4l-4 0l0 4" />
        <path d="M4 4l6 6" />
    </symbol>
    <symbol id="plyr-exit-fullscreen" viewBox="0 0 24 24" fill="none"  stroke="currentColor"  stroke-width="2"  stroke-linecap="round"  stroke-linejoin="round">
        <path stroke="none" d="M0 0h24v24H0z" fill="none"/>
        <path d="M5 9l4 0l0 -4" />
        <path d="M3 3l6 6" />
        <path d="M5 15l4 0l0 4" />
        <path d="M3 21l6 -6" />
        <path d="M19 9l-4 0l0 -4" />
        <path d="M15 9l6 -6" />
        <path d="M19 15l-4 0l0 4" />
        <path d="M15 15l6 6" />
    </symbol>
    <symbol id="plyr-fast-forward" viewBox="0 0 24 24" fill="currentColor">
        <path stroke="none" d="M0 0h24v24H0z" fill="none"/>
        <path d="M2 5v14c0 .86 1.012 1.318 1.659 .753l8 -7a1 1 0 0 0 0 -1.506l-8 -7c-.647 -.565 -1.659 -.106 -1.659 .753z" />
        <path d="M13 5v14c0 .86 1.012 1.318 1.659 .753l8 -7a1 1 0 0 0 0 -1.506l-8 -7c-.647 -.565 -1.659 -.106 -1.659 .753z" />
    </symbol>
    <symbol id="plyr-googlecast" viewBox="0 0 24 24" fill="none"  stroke="currentColor"  stroke-width="2"  stroke-linecap="round"  stroke-linejoin="round">
        <path stroke="none" d="M0 0h24v24H0z" fill="none"/>
        <path d="M3 19l.01 0" />
        <path d="M7 19a4 4 0 0 0 -4 -4" />
        <path d="M11 19a8 8 0 0 0 -8 -8" />
        <path d="M15 19h3a3 3 0 0 0 3 -3v-8a3 3 0 0 0 -3 -3h-12a3 3 0 0 0 -2.8 2" />
    </symbol>
    <symbol id="plyr-logo-vimeo" viewBox="0 0 24 24" fill="currentColor">
        <path stroke="none" d="M0 0h24v24H0z" fill="none"/>
        <path d="M18.5 3c2.38 0 3.985 2.174 3.486 5.164c-.535 3.21 -2.25 6.074 -4.808 8.675c-1.277 1.298 -2.211 2.061 -4.112 3.485c-2.323 1.597 -4.408 .365 -5.47 -1.897c-.292 -.618 -.586 -1.724 -1.248 -4.477l-.03 -.126c-.483 -2.01 -.819 -3.319 -.982 -3.878l-.016 -.052l-.031 .013l-.13 .06l-.137 .07a4 4 0 0 0 -.43 .269a1 1 0 0 1 -1.3 -.099l-1 -1a1 1 0 0 1 -.124 -1.262a20 20 0 0 1 1.918 -2.382c.98 -1.037 1.955 -1.816 2.928 -2.233c.5 -.214 .996 -.33 1.486 -.33c2.237 0 3.02 1.588 3.567 4.963c.03 .183 .057 .359 .112 .709c.123 .784 .197 1.198 .292 1.588c.292 1.185 .528 1.984 .735 2.483l-.016 -.039l.096 -.107c.354 -.411 .757 -1.014 1.172 -1.771l.157 -.291c.391 -.745 .505 -1.528 .363 -1.9c-.028 -.073 .007 -.065 -.456 .218a1 1 0 0 1 -1.51 -1.013c.496 -3.053 2.745 -4.84 5.488 -4.84" />
    </symbol>
    <symbol id="plyr-logo-youtube" viewBox="0 0 24 24" fill="currentColor">
        <path stroke="none" d="M0 0h24v24H0z" fill="none"/>
        <path d="M18 3a5 5 0 0 1 5 5v8a5 5 0 0 1 -5 5h-12a5 5 0 0 1 -5 -5v-8a5 5 0 0 1 5 -5zm-9 6v6a1 1 0 0 0 1.514 .857l5 -3a1 1 0 0 0 0 -1.714l-5 -3a1 1 0 0 0 -1.514 .857z" />
    </symbol>
    <symbol id="plyr-muted" viewBox="0 0 24 24" fill="none" stroke="currentColor" stroke-width="2" stroke-linecap="round" stroke-linejoin="round">
        <path stroke="none" d="M0 0h24v24H0z" fill="none"/>
        <path d="M15 8a5 5 0 0 1 1.912 4.934m-1.377 2.602a5 5 0 0 1 -.535 .464" />
        <path d="M17.7 5a9 9 0 0 1 2.362 11.086m-1.676 2.299a9 9 0 0 1 -.686 .615" />
        <path d="M9.069 5.054l.431 -.554a.8 .8 0 0 1 1.5 .5v2m0 4v8a.8 .8 0 0 1 -1.5 .5l-3.5 -4.5h-2a1 1 0 0 1 -1 -1v-4a1 1 0 0 1 1 -1h2l1.294 -1.664" fill="#fff"/>
        <path d="M3 3l18 18" />
    </symbol>
    <symbol id="plyr-pause" viewBox="0 0 24 24" fill="currentColor">
        <path stroke="none" d="M0 0h24v24H0z" fill="none"/><path d="M9 4h-2a2 2 0 0 0 -2 2v12a2 2 0 0 0 2 2h2a2 2 0 0 0 2 -2v-12a2 2 0 0 0 -2 -2z" /><path d="M17 4h-2a2 2 0 0 0 -2 2v12a2 2 0 0 0 2 2h2a2 2 0 0 0 2 -2v-12a2 2 0 0 0 -2 -2z" />
    </symbol>
    <symbol id="plyr-pip" viewBox="0 0 24 24" fill="currentColor">
        <path stroke="none" d="M0 0h24v24H0z" fill="none"/>
        <path d="M19 4a3 3 0 0 1 3 3v4a1 1 0 0 1 -2 0v-4a1 1 0 0 0 -1 -1h-14a1 1 0 0 0 -1 1v10a1 1 0 0 0 1 1h6a1 1 0 0 1 0 2h-6a3 3 0 0 1 -3 -3v-10a3 3 0 0 1 3 -3z" />
        <path d="M20 13a2 2 0 0 1 2 2v3a2 2 0 0 1 -2 2h-5a2 2 0 0 1 -2 -2v-3a2 2 0 0 1 2 -2z" />
    </symbol>
    <symbol id="plyr-play" viewBox="0 0 24 24" fill="currentColor">
        <path stroke="none" d="M0 0h24v24H0z" fill="none"/>
        <path d="M6 4v16a1 1 0 0 0 1.524 .852l13 -8a1 1 0 0 0 0 -1.704l-13 -8a1 1 0 0 0 -1.524 .852z" />
    </symbol>
    <symbol id="plyr-playlist" viewBox="0 0 24 24" fill="none"  stroke="currentColor"  stroke-width="2"  stroke-linecap="round"  stroke-linejoin="round">
        <path stroke="none" d="M0 0h24v24H0z" fill="none"/>
        <path d="M14 4h6v6h-6z" fill="#fff"/>
        <path d="M4 14h6v6h-6z" fill="#fff"/>
        <path d="M17 17m-3 0a3 3 0 1 0 6 0a3 3 0 1 0 -6 0" fill="#fff"/>
        <path d="M7 7m-3 0a3 3 0 1 0 6 0a3 3 0 1 0 -6 0" fill="#fff"/>
    </symbol>
    <symbol id="plyr-restart" viewBox="0 0 24 24" fill="none"  stroke="currentColor"  stroke-width="2"  stroke-linecap="round"  stroke-linejoin="round">
        <path stroke="none" d="M0 0h24v24H0z" fill="none"/>
        <path d="M4.05 11a8 8 0 1 1 .5 4m-.5 5v-5h5" />
    </symbol>
    <symbol id="plyr-rewind" viewBox="0 0 24 24" fill="currentColor">
        <path stroke="none" d="M0 0h24v24H0z" fill="none"/>
        <path d="M20.341 4.247l-8 7a1 1 0 0 0 0 1.506l8 7c.647 .565 1.659 .106 1.659 -.753v-14c0 -.86 -1.012 -1.318 -1.659 -.753z" />
        <path d="M9.341 4.247l-8 7a1 1 0 0 0 0 1.506l8 7c.647 .565 1.659 .106 1.659 -.753v-14c0 -.86 -1.012 -1.318 -1.659 -.753z" />
    </symbol>
    <symbol id="plyr-settings" viewBox="0 0 24 24" fill="currentColor">
        <path stroke="none" d="M0 0h24v24H0z" fill="none"/>
        <path d="M14.647 4.081a.724 .724 0 0 0 1.08 .448c2.439 -1.485 5.23 1.305 3.745 3.744a.724 .724 0 0 0 .447 1.08c2.775 .673 2.775 4.62 0 5.294a.724 .724 0 0 0 -.448 1.08c1.485 2.439 -1.305 5.23 -3.744 3.745a.724 .724 0 0 0 -1.08 .447c-.673 2.775 -4.62 2.775 -5.294 0a.724 .724 0 0 0 -1.08 -.448c-2.439 1.485 -5.23 -1.305 -3.745 -3.744a.724 .724 0 0 0 -.447 -1.08c-2.775 -.673 -2.775 -4.62 0 -5.294a.724 .724 0 0 0 .448 -1.08c-1.485 -2.439 1.305 -5.23 3.744 -3.745a.722 .722 0 0 0 1.08 -.447c.673 -2.775 4.62 -2.775 5.294 0zm-2.647 4.919a3 3 0 1 0 0 6a3 3 0 0 0 0 -6z" />
    </symbol>
    <symbol id="plyr-streamtape" viewBox="0 0 640 512">
        <path fill="currentColor"
            d="M224 192c-35.3 0-64 28.7-64 64s28.7 64 64 64 64-28.7 64-64-28.7-64-64-64zm400 224H380.6c41.5-40.7 67.4-97.3 67.4-160 0-123.7-100.3-224-224-224S0 132.3 0 256s100.3 224 224 224h400c8.8 0 16-7.2 16-16v-32c0-8.8-7.2-16-16-16zm-400-64c-53 0-96-43-96-96s43-96 96-96 96 43 96 96-43 96-96 96z" />
    </symbol>
    <symbol id="plyr-volume-down" viewBox="0 0 24 24"  fill="none"  stroke="currentColor"  stroke-width="2"  stroke-linecap="round"  stroke-linejoin="round">
        <path stroke="none" d="M0 0h24v24H0z" fill="none"/>
        <path d="M15 8a5 5 0 0 1 0 8" />
        <path d="M6 15h-2a1 1 0 0 1 -1 -1v-4a1 1 0 0 1 1 -1h2l3.5 -4.5a.8 .8 0 0 1 1.5 .5v14a.8 .8 0 0 1 -1.5 .5l-3.5 -4.5" fill="#fff"/>
    </symbol>
    <symbol id="plyr-volume" viewBox="0 0 24 24"  fill="none"  stroke="currentColor"  stroke-width="2"  stroke-linecap="round"  stroke-linejoin="round">
        <path stroke="none" d="M0 0h24v24H0z" fill="none"/>
        <path d="M15 8a5 5 0 0 1 0 8" />
        <path d="M17.7 5a9 9 0 0 1 0 14" />
        <path d="M6 15h-2a1 1 0 0 1 -1 -1v-4a1 1 0 0 1 1 -1h2l3.5 -4.5a.8 .8 0 0 1 1.5 .5v14a.8 .8 0 0 1 -1.5 .5l-3.5 -4.5" fill="#fff"/>
    </symbol>
</svg>